<svg xmlns="http://www.w3.org/2000/svg" width="146.528" height="470.419" viewBox="0 0 146.528 470.419"><defs><style>.a{fill:#fff;}.b{fill:#0700ff;}</style></defs><g transform="translate(-1147.016 -189.374)"><path class="a" d="M1.769,128.747c1.84-15.459,4.623-31.316,11.652-45.634C15.836,64.6,11.767,38.078,30.258,25.591c-.236-2.217,4.046-4.127,6.032-5.311,3.225-1.96,7.587-5.811,11.4-3.653,1.2-.341,4.174,1.055,5.541-1.972,1.4-3.1,1.2-9.318,2.314-9.885C55.057.29,76.766-2.708,82.433,3.625c2.691,4.857-.4,6.4,5.667,12.789A28.142,28.142,0,0,1,95.8,18.06c2.04.262,4.069.58,6.089.911,25.766,2.212,27.714,19.9,30,38.894,1.955,25.515,10.448,50.934,6.777,76.65a60.007,60.007,0,0,1-.26,28.115c7.946,10.765,2.186,16.722-2.77,26.958a25.165,25.165,0,0,0-1.94,5.7,18.022,18.022,0,0,1-.2,4.557c-.841,3.443-7.027,2.961-7.3-.517-.484-2.284-.334-4.654-.709-6.95.022.12.06.349.06.367-.907-5.777-2.37-8.016-6.409-12.425-5.186-6.956-2-15.7-3.181-23.481-.324-2.6-.753-5.168-1.041-7.774a24.053,24.053,0,0,1-5.636,2.248c1.251,8.958-.925,17.959-3.346,26.624-6.55,22.322-15.235,45.243-11.463,68.668,0-.011,4.113,19.145,7.363,28.6,3.93,11.991,7.093,24,12.652,35.5,2.977,8.276,9.277,16.127,9.032,25.037,2.175,2.983-1.741,6.568-5.192,6.559,0,4.04,2.3,11.651,2.3,11.651.361,2.822,1.917,6.415-.435,8.812,3.2,7.555,4.322,15.729,5.2,23.725.335,3.793.72,8.364-3.658,10.515-4.079,1.636-8.827.917-13.182,1.4-4.213.005-8.574,1.03-12.718.145-4.76-1.257-5.718-6.039-4.822-9.862.578-3.982,1.271-7.95,2.029-11.908,2.249-8.617,2.878-18.178,5.759-26.467a8.227,8.227,0,0,1-4.329-2.135,5.945,5.945,0,0,1-5.515-4.276c-.492-1.464-2.61-1.764-4.037-2.23a13.116,13.116,0,0,1-1.681,3.476,4.461,4.461,0,0,1-4.254,5.35c-.432.385-.832.777-1.273,1.144a32.877,32.877,0,0,1,6.554,15.393c.769,4.235,1.573,11.022-4.472,12.276-2.282.279-4.738.821-6.974.05a35.055,35.055,0,0,1-7.829,1.979c-11.505,1.8-22.6,1.649-34.2,2.859-3.061.4-15.324,1.562-17.365,0-2.49.472-.984-1.25-2.032-2.859-.834-1.209-3.062-3.523-1.624-4.193,3.017-1.208,5.692-3.583,8.453-4.932,12.9-6.81,40.728-18.407,40.535-18.733.038.231-.169-5.6-1.2-7.146-1.451-1.334-4.343-1.1-5.857-2.375-.961.042-8.172-1.882-7.555-5.1.791-2.572-1.793-5.725,0-7.9C38.2,280.681,24.39,231.908,16.766,181.887c-.169-.137-.335-.276-.5-.414-3.931.61-6.985-3.051-8.179-5.935a20.244,20.244,0,0,1-1.636-1.7c-3.2-3.863-3.261-8.895-3.625-13.491a3,3,0,0,1-1.346-2.371q-.19-4.432-.4-8.862s0,0,0,0a6.412,6.412,0,0,1-.84-4.806C.137,138.858-.768,133.757,1.769,128.747Z" transform="translate(1150.147 260.033)"/><path class="b" d="M38.622,0a55.848,55.848,0,0,0-7,.431,39.565,39.565,0,0,0-6.717,1.4,20.1,20.1,0,0,0-5.49,2.543,10.852,10.852,0,0,0-1.989,1.751,7.773,7.773,0,0,0-1.327,2.1,24.7,24.7,0,0,0-.269,3.91,34.932,34.932,0,0,0,.26,3.919c.31,2.613.862,5.258,1.4,7.817.358,1.714.727,3.486,1.016,5.216l.2.975c.178.868.36,1.763.52,2.552.581,2.861,1.182,5.819,1.842,8.716.74,3.249,1.477,6.073,2.253,8.632.239.932.547,1.932.97,3.145a12.161,12.161,0,0,1,.039,1.817,16.147,16.147,0,0,1-.389,2.354c-.023.1-.044.229-.062.337a22.448,22.448,0,0,0-4.457,2.415,7.332,7.332,0,0,0-1.392,1.3,3.155,3.155,0,0,0-.663,1.361,9.269,9.269,0,0,0,.675,4.58l0,.006c.066.205.134.418.2.624l.03.1c1.519,4.947,3.365,10.291,5.644,16.337,2.031,5.387,4.2,10.8,6.3,16.044v0c2.479,6.183,5.043,12.577,7.357,18.883,1.245,3.394,2.323,6.5,3.294,9.49,1.09,3.357,2.02,6.489,2.844,9.575.884,3.313,1.641,6.576,2.249,9.7.65,3.341,1.157,6.66,1.507,9.865.37,3.388.579,6.777.621,10.07a98.086,98.086,0,0,1-.411,10.316,73.926,73.926,0,0,1-.9,7.379c-.393,2.3-.893,4.673-1.53,7.264-1.183,4.814-2.669,9.657-4.106,14.339v0c-1.384,4.51-2.815,9.173-3.973,13.806-.624,2.494-1.121,4.78-1.52,6.99-.448,2.48-.762,4.8-.96,7.092-.432,1.734-.924,3.785-1.3,5.853a41.291,41.291,0,0,0-.68,5.943l-.588.126c-.4.084-.8.17-1.2.266a24.077,24.077,0,0,0-1.511-5.057,35.023,35.023,0,0,1,.5-9.572,1.419,1.419,0,0,0-.151-.982,1.387,1.387,0,0,0-.739-.611,17.534,17.534,0,0,0,1.011-7.175,10.454,10.454,0,0,0-.913-3.457,8.915,8.915,0,0,0-2.242-2.959l-.332-.2a22.36,22.36,0,0,1-2.08-1.4,5.763,5.763,0,0,1-1.246-1.284,10.88,10.88,0,0,1-1.324-4.074l-2.663-10.112a7.573,7.573,0,0,0-1.7-3.509,4.169,4.169,0,0,0-3.034-1.293A4.918,4.918,0,0,0,13,195.9a5.73,5.73,0,0,0-1.388.664A5.661,5.661,0,0,0,9.6,198.829a22.612,22.612,0,0,0-1.275,5.128,30.979,30.979,0,0,1-.8,3.787,12.774,12.774,0,0,1-.7,2.2A18.006,18.006,0,0,1,5.79,212,46.7,46.7,0,0,1,3.179,215.9h0A17.509,17.509,0,0,0,.83,220.627,17.209,17.209,0,0,0,0,225.773,15.935,15.935,0,0,0,.8,230.9a14.956,14.956,0,0,0,2.526,4.661c.129.306.26.622.375.9.258.625.525,1.27.813,1.9-1.086,1.181-.946,2.831-.811,4.427a12.666,12.666,0,0,1,.066,2.109c0,1.658-.034,3.364-.095,5.214-.141,4.349-.432,8.755-.713,13.016h0c-.382,5.8-.777,11.79-.8,17.7a73.691,73.691,0,0,0,.154,7.49c.161,2.341.423,4.77.8,7.426.7,4.934,1.708,9.922,2.681,14.745.735,3.645,1.5,7.413,2.119,11.134.751,5.145,1.206,10.415,1.646,15.511v0c.353,4.087.717,8.313,1.233,12.449.277,2.226.575,4.251.91,6.188.376,2.174.789,4.184,1.263,6.144a26.308,26.308,0,0,0,1.857,5.428,21.408,21.408,0,0,0,2.695,4.288,21.056,21.056,0,0,0,3.378,3.305,24.723,24.723,0,0,0,3.906,2.48,33.006,33.006,0,0,0,4.279,1.811c1.382.479,2.853.9,4.5,1.3,3.035.731,6.081,1.221,9.026,1.695h0c7.11,1.143,13.25,2.131,15.394,6.014a15.135,15.135,0,0,1,1.113,1.983,17.348,17.348,0,0,1,.81,2.086,24.012,24.012,0,0,1,.914,4.36.4.4,0,0,0,.4.359.405.405,0,0,0,.414-.359,15.849,15.849,0,0,0-1.335-8.649,12.759,12.759,0,0,0-6.389-6.351,55.39,55.39,0,0,0,4.639-4.441h0c1.24-1.283,2.521-2.609,3.892-3.806a26.254,26.254,0,0,1,2.152-1.7,20.143,20.143,0,0,1,2.4-1.462,19.213,19.213,0,0,1,5.026-2.124,20.774,20.774,0,0,1,5.309-.68,22.24,22.24,0,0,1,3.4.264,22.764,22.764,0,0,1,3.306.771,22.514,22.514,0,0,1,3.129,1.245,21.433,21.433,0,0,1,2.868,1.685,18.744,18.744,0,0,1,4.626,4.56,15.9,15.9,0,0,1,2.6,5.925c-.587.125-1.283.222-2.019.324h0a21.458,21.458,0,0,0-4.212.873,3.742,3.742,0,0,0-2.633,2.381,5.612,5.612,0,0,0-.462,2.324c-.1,1.153-.148,2.6-.135,3.882-.023.41-.038.825-.053,1.226l-.005.148a8.9,8.9,0,0,0-.051,1.125.576.576,0,0,0,.211.458.733.733,0,0,0,.462.152.674.674,0,0,0,.718-.61c.024-.339.04-.695.053-1,.007-.063.016-.128.024-.19h0l.01-.074c.115-.389.208-.789.3-1.176.054-.231.1-.449.16-.665.1-.381.175-.673.252-.949a7.86,7.86,0,0,1,.749-2.412,7.126,7.126,0,0,1,2.514-2.669,7.623,7.623,0,0,1,1.749-.833,6.253,6.253,0,0,1,1.882-.317h.044c.243,0,.488.015.725.029h.006c.236.014.48.029.72.029h.13a6.066,6.066,0,0,0,2.264-.621l.132-.056a5.3,5.3,0,0,1,2.065-.5h0a38.121,38.121,0,0,0,3.961-1.487,33.543,33.543,0,0,0,3.521-1.808,30.942,30.942,0,0,0,3.109-2.1,30.052,30.052,0,0,0,2.726-2.376,30.741,30.741,0,0,0,2.372-2.623,33,33,0,0,0,2.048-2.846c.617-.96,1.207-1.984,1.752-3.044.525-1.019,1.025-2.1,1.486-3.217a54.689,54.689,0,0,0,2.288-6.855c.593-2.222,1.107-4.595,1.571-7.253.86-4.925,1.4-10,1.918-14.912v0c.57-5.372,1.107-10.447,2.022-15.121.745-3.71,1.7-7.745,2.908-12.334,1.081-4.1,2.265-8.241,3.409-12.249v0c1.889-6.62,3.843-13.464,5.388-20.257.832-3.656,1.482-7.007,1.989-10.243.568-3.632.942-7.027,1.142-10.381a2.265,2.265,0,0,0-.1-1.229,2.707,2.707,0,0,0-.659-.961,9.882,9.882,0,0,0-2.181-1.442c-.406-.221-.789-.43-1.138-.653a33.722,33.722,0,0,1,.48-7.2,47.007,47.007,0,0,0,.526-5.192,18.112,18.112,0,0,0-.1-2.584,13.581,13.581,0,0,0-.545-2.571,34.64,34.64,0,0,0-5.155-8.9c-2.049-2.556-5.194-5.6-8.544-5.6a5.377,5.377,0,0,0-1.417.19c-.7-4.929-1.5-9.925-2.44-15.273-.84-4.764-1.776-9.7-2.862-15.1-2.017-10.016-4.253-20.1-6.416-29.857l0-.008c-1.679-7.572-3.415-15.4-5.03-23.116-1.809-8.643-3.272-16.235-4.473-23.21-1.44-8.365-2.545-16.045-3.377-23.48-.451-4.027-.824-8.03-1.109-11.9-.3-4.055-.512-8.1-.633-12.03a4.9,4.9,0,0,0,.3-2.33,4.815,4.815,0,0,0-.757-2.029,8.094,8.094,0,0,0-2.988-2.608,12.067,12.067,0,0,0-1.967-.842,12.512,12.512,0,0,0-2.07-.492l-.6-.319a35.235,35.235,0,0,0-6.249-2.762l-.029-.015,0,0c-.044-.023-.089-.048-.134-.07a1.076,1.076,0,0,0-.337-.1,11.194,11.194,0,0,1,1.181-3.871,43.588,43.588,0,0,0,4.315-1.166c1.332-.43,2.7-.932,4.185-1.534,2.756-1.119,5.5-2.421,8.146-3.68h0c2.921-1.389,5.942-2.824,8.983-4.012a68.279,68.279,0,0,1,7.373-3.23A104.128,104.128,0,0,0,131.044,29.9c3.555-1.923,5.477-3.692,5.873-5.407l.034-.168a5.178,5.178,0,0,0-1.013-4.238,4.133,4.133,0,0,0-2.95-1.528,1.773,1.773,0,0,0,.679-.828,1.72,1.72,0,0,0,.066-.964,2.456,2.456,0,0,0-.66-1.195,2.666,2.666,0,0,0-1.266-.73,19,19,0,0,0-4.257-.379c-.73-.01-1.486-.021-2.215-.075-2.617-.076-5.266-.115-7.873-.115a251.325,251.325,0,0,0-52.326,5.376,22.589,22.589,0,0,0-2.479.655,9.875,9.875,0,0,0-2.285,1.076A9.08,9.08,0,0,0,58.4,23.336,8.244,8.244,0,0,0,57.236,25.6a10.076,10.076,0,0,0-.475,2.517,14.811,14.811,0,0,0,.09,2.707,29.37,29.37,0,0,0,1.386,5.741c.649,1.945,1.427,3.888,2.179,5.767a59.458,59.458,0,0,1,2.4,6.7,18.848,18.848,0,0,0-2.255.47l-.165.046a5.361,5.361,0,0,0-2.021.915c-.014.012-.027.025-.038.036l-.025.025a1.455,1.455,0,0,0-1.2.515c-.951,1.226.137,4.385.932,6.691a16.939,16.939,0,0,1,.657,2.151c-.489-.966-.957-1.972-1.409-2.945v0a49.506,49.506,0,0,0-3-5.769,1.988,1.988,0,0,0-.9-.715,3.047,3.047,0,0,0-1.147-.193,11.266,11.266,0,0,0-2.081.275h0a12.565,12.565,0,0,1-1.489.232c.142-2.419.4-4.869.787-7.49.347-2.35.79-4.775,1.354-7.414,1.044-4.885,2.341-9.726,3.689-14.67.156-.584.323-1.189.485-1.775l0-.016a47.3,47.3,0,0,0,1.685-7.693,13.53,13.53,0,0,0-.067-3.565,8.723,8.723,0,0,0-.43-1.626,7.238,7.238,0,0,0-1.894-2.814A8.848,8.848,0,0,0,52.73,2.568,12.276,12.276,0,0,0,50.7,1.64,18.431,18.431,0,0,0,48.149.945,31.967,31.967,0,0,0,43.859.251C42.2.085,40.44,0,38.622,0ZM20.01,11.411a4.248,4.248,0,0,1,.149-2.1,3.269,3.269,0,0,1,1.027-1.413,12.394,12.394,0,0,1,3.731-1.748l.037-.013.167-.058a43.888,43.888,0,0,1,6.725-1.707,41.658,41.658,0,0,1,6.989-.6h0A34.647,34.647,0,0,1,49.381,5.337a6.005,6.005,0,0,1,1.76,1.026,4.032,4.032,0,0,1,1.094,1.51c-2.866-.243-5.692-.366-8.4-.366-2.074,0-4.126.072-6.1.214-2.065.149-4.1.379-6.049.683-2.033.317-4.029.725-5.93,1.21A55.632,55.632,0,0,0,20.01,11.411ZM61.153,26.8a3.966,3.966,0,0,1,2.638-2.781,19.592,19.592,0,0,1,4.284-1.047c.334-.056.649-.108.954-.163,3.479-.675,6.974-1.282,10.388-1.8,3.507-.536,7.029-1,10.468-1.37,4.5-.5,9.185-.884,13.91-1.13,4.521-.235,9.218-.355,13.961-.355h0c4.228,0,8.618.095,13.047.282a2.418,2.418,0,0,1,.342.18,1.322,1.322,0,0,0,.726.25h.058l.046,0h.031a1.831,1.831,0,0,0-.565.536c-7.088.723-14.307,1.387-21.289,2.029h0c-8.051.74-16.377,1.506-24.549,2.366C76.438,24.755,68.44,25.74,61.153,26.8Zm5.853,26.052a27.12,27.12,0,0,0-1.037-5.192c-.5-1.713-1.118-3.431-1.717-5.093h0l0-.013c-.293-.812-.6-1.651-.877-2.473a10.094,10.094,0,0,1,2.4-.295h0a10.322,10.322,0,0,1,2.645.351,14.3,14.3,0,0,1,2.5.927,40.181,40.181,0,0,1,4.745,2.817c1.227.806,2.5,1.639,3.781,2.331a18.89,18.89,0,0,0,1.961.925,12.954,12.954,0,0,0,2.042.636,9.69,9.69,0,0,0-.168,2.913,7.462,7.462,0,0,0,.788,2.727c-1.963-.316-3.741-.548-5.434-.71-1.938-.185-3.727-.275-5.47-.275A43.05,43.05,0,0,0,67.006,52.852Zm-40.951,3.9a.178.178,0,0,0,.025-.111c-.013-2.438-.145-4.927-.4-7.608-.228-2.375-.551-4.85-.988-7.569a15.781,15.781,0,0,0,2.878,2.263,18.185,18.185,0,0,0,3.334,1.6,20.863,20.863,0,0,0,3.638.952,22.844,22.844,0,0,0,3.79.315,23.34,23.34,0,0,0,3.338-.24,22.341,22.341,0,0,0,3.235-.715l-.03.324c-.022.231-.046.465-.069.691a17.729,17.729,0,0,0-.048,4.86l-.315.082c-.683.175-1.539.382-2.529.623-2.107.511-4.729,1.147-7.517,1.909C31.1,55.027,28.371,55.885,26.055,56.749Zm8.3,189.869c.762-2.267,1.448-4.611,2.038-6.967.578-2.306,1.08-4.687,1.493-7.078.279-1.941.64-3.905,1.1-6.006.413-1.871.9-3.809,1.483-5.924,1.087-3.928,2.364-7.885,3.6-11.712h0c1.269-3.932,2.581-8,3.689-12.04.962-3.589,1.711-6.926,2.289-10.2a94.06,94.06,0,0,0,1.222-9.811,91.592,91.592,0,0,0,.164-9.868c-.12-3.339-.41-6.731-.885-10.369l-.058-.435c-.3-2.306-.669-4.683-1.11-7.064-.42-2.27-.916-4.619-1.474-6.984-1.029-4.363-2.281-8.868-3.829-13.772-1.29-4.087-2.814-8.531-4.658-13.586-1.644-4.5-3.385-9.068-5.068-13.482l0-.008,0,0c-2.353-6.167-4.786-12.544-6.988-18.853-1.186-3.4-2.212-6.5-3.138-9.5-1.039-3.362-1.926-6.5-2.711-9.588,1.053-.593,2.175-1.167,3.334-1.706,1.1-.513,2.275-1.01,3.483-1.479,2.225-.863,4.613-1.648,7.3-2.4,4.977-1.393,10.146-2.433,15.144-3.438l.013,0c.769-.155,1.565-.315,2.342-.472,1.732,3.314,3.361,6.589,4.843,9.735,1.575,3.344,3.043,6.671,4.365,9.889,1.392,3.389,2.671,6.779,3.8,10.075,1.182,3.447,2.242,6.909,3.151,10.292C71.7,101.7,74.3,109.564,76.8,117.171c2.841,8.621,5.779,17.536,8.422,26.3,1.421,4.711,2.649,9.014,3.755,13.158,1.24,4.644,2.3,8.971,3.228,13.228,1,4.566,1.852,9.057,2.533,13.348.728,4.586,1.29,9.133,1.671,13.515.4,4.63.619,9.25.642,13.732.024,4.7-.163,9.406-.555,14a1.166,1.166,0,0,0-.564,1.12,2.6,2.6,0,0,0,.455,1.259c-.193,3.842-.439,7-.774,9.934a.076.076,0,0,0,.021.063.125.125,0,0,0,.089.033.1.1,0,0,0,.1-.07c.142-.643.287-1.293.427-1.92.48-2.148.976-4.369,1.4-6.566a33.1,33.1,0,0,1,3.111,3.426c.956,1.2,1.867,2.453,2.748,3.669v0c1.161,1.6,2.361,3.258,3.68,4.795a3.911,3.911,0,0,0-.128-1.438,14.883,14.883,0,0,0-.655-2.008,40.093,40.093,0,0,0-2.4-4.893A46.034,46.034,0,0,0,101,227.175a11.586,11.586,0,0,0-2.651-2.795c.374-2.131.694-4.3.952-6.452.253-2.108.453-4.257.6-6.39.275-4.119.346-8.363.211-12.616-.128-4.035-.446-8.22-.945-12.44-.468-3.959-1.115-8.1-1.922-12.312-.755-3.942-1.644-7.943-2.718-12.232-.965-3.856-2.056-7.847-3.334-12.2-2.382-8.114-5.047-16.222-7.8-24.506-2.365-7.6-4.747-15.341-7.051-22.824l-.015-.049h0c-4.849-15.749-9.863-32.035-15-47.991.1,0,.192,0,.276-.005a.088.088,0,0,0,0,.1c.23.358,3.184.363,5.79.366h0a23.867,23.867,0,0,1,4.193.167A106.129,106.129,0,0,1,82.14,56.516c3.589.683,7.213,1.5,10.411,2.229l.848.2a10.5,10.5,0,0,1,2.545.882,2.644,2.644,0,0,1,1.486,1.849l0,.215a.494.494,0,0,0,.011.119l-.05.192a.4.4,0,0,0-.017.089l-.069.095-.018.025-.012.016h0a.681.681,0,0,0-.069.1s.018-.012.047-.042a2.01,2.01,0,0,0-.6,1.5,1.706,1.706,0,0,0,.178.677,1.862,1.862,0,0,0,.475.593c.121,4.122.342,8.371.658,12.63.3,4.059.7,8.262,1.178,12.493.888,7.809,2.073,15.876,3.623,24.663,1.292,7.325,2.868,15.3,4.819,24.378,1.74,8.1,3.613,16.318,5.424,24.267,2.533,11.115,5.152,22.609,7.467,34.027,1.246,6.145,2.307,11.774,3.242,17.208,1.049,6.1,1.915,11.8,2.646,17.417.48,3.519,1.039,7.088,1.58,10.539l0,.011,0,.022c.283,1.806.576,3.674.853,5.513-4.123-1.027-8.349-1.939-12.561-2.711-4.187-.768-8.468-1.417-12.724-1.93-4.235-.51-8.552-.9-12.834-1.154-4.265-.254-8.6-.383-12.889-.383A218.046,218.046,0,0,0,34.352,246.617Zm-27.9-9.335h0a13.591,13.591,0,0,1-2.127-3.337,15.025,15.025,0,0,1-1.111-3.724,18.012,18.012,0,0,1,.476-7.732,15.214,15.214,0,0,1,1.578-3.474c.677-1.133,1.474-2.236,2.176-3.209a20.572,20.572,0,0,0,1.76-2.754,23.414,23.414,0,0,0,1.3-2.925,33.188,33.188,0,0,0,1.561-6.186l.019-.08c.052-.227.1-.516.156-.85.256-1.535.642-3.854,2.1-3.854a1.558,1.558,0,0,1,.311.033c.463.276.718,1.344.9,2.124.03.124.06.253.088.362l2.381,9.044c.1.38.191.758.288,1.159a21.231,21.231,0,0,0,1.056,3.484,8.032,8.032,0,0,0,.89,1.575,6.172,6.172,0,0,0,1.311,1.324l.289.171a13.962,13.962,0,0,1,2.758,2.022,4.947,4.947,0,0,1,1.5,2.869,8.179,8.179,0,0,1,.112,3.008,25.117,25.117,0,0,1-.634,2.966v0c-.2.781-.408,1.59-.545,2.384-3.121.662-6.3,1.48-9.434,2.429-3.039.919-6.122,1.986-9.164,3.171Zm121.929-16.789a1.413,1.413,0,0,0,.455-.072,7.777,7.777,0,0,1,2,.86,13.228,13.228,0,0,1,1.978,1.46,23.47,23.47,0,0,1,3.611,4.133,28.424,28.424,0,0,1,2.7,4.775,14.5,14.5,0,0,1,1.243,4.246c.116,1.393.1,2.828.084,4.216a42.219,42.219,0,0,0,.108,4.494,16.406,16.406,0,0,0,.354,2.206,12.316,12.316,0,0,0,.714,2.157l-.213-.1c-.216-.1-.466-.218-.755-.354h0c-1.193-.562-3-1.411-4.786-2.106a26.607,26.607,0,0,0-2.624-.884,8.9,8.9,0,0,0-2.225-.363,2.084,2.084,0,0,0-1.252.317c.021-4-.128-8.1-.455-12.537-.286-3.869-.705-7.953-1.283-12.486A1.729,1.729,0,0,0,128.377,220.493ZM6.357,281.243c1.417,0,2.409-1.294,2.991-2.38a11.527,11.527,0,0,0,1.211-3.821,10.01,10.01,0,0,0-.358-3.457,10.652,10.652,0,0,0-.686-1.863,7.055,7.055,0,0,0-1.033-1.595,3.629,3.629,0,0,0-2.41-1.327l.275-4.1c.224-3.369.452-6.978.6-10.538.165-3.89.222-7.341.175-10.551a1.115,1.115,0,0,0,.431-.2,3.8,3.8,0,0,1,.079-.608.415.415,0,0,1,.339-.339l.006-.008a1.209,1.209,0,0,0-.094-.416c3.042-1.181,6.186-2.279,9.346-3.263,3.134-.976,6.358-1.864,9.583-2.638a31.036,31.036,0,0,0,.105,5.948c-.783.69-1.077,2.016-.9,4.054a40.379,40.379,0,0,0,1.054,5.532v0a28.933,28.933,0,0,1,.693,3.413c.533,2.877,1.027,5.87,1.511,9.15.409,2.774.812,5.779,1.234,9.185a3.727,3.727,0,0,0-2.636,1.477,8.483,8.483,0,0,0-1.384,2.681,13.344,13.344,0,0,0-.845,3.027,8.617,8.617,0,0,0-.084,1.55,7.217,7.217,0,0,0,.231,1.553,5.419,5.419,0,0,0,1.836,2.853A5.172,5.172,0,0,0,30.9,285.84a4.13,4.13,0,0,0,1.22-.183L32.3,287.3c.187,1.76.373,3.55.553,5.281.888,8.538,1.807,17.366,3.188,26a6.042,6.042,0,0,0-2.791-.71,5.773,5.773,0,0,0-2.693.678,6.825,6.825,0,0,0-1.163.772,7.555,7.555,0,0,0-1,.994,7.859,7.859,0,0,0-1.567,3.007,6.328,6.328,0,0,0-.025,3.3,7.331,7.331,0,0,0,1.24,2.866,7.151,7.151,0,0,0,2.414,2.141,8.976,8.976,0,0,0,3.861,1.022,3.76,3.76,0,0,0,1.5-.272,2.173,2.173,0,0,0,1.061-.943,2.482,2.482,0,0,0,1.4-.656c.684,3.284,1.327,5.963,2.022,8.43a67.993,67.993,0,0,0,2.845,8.21,9.735,9.735,0,0,0-2.439,2,8.721,8.721,0,0,0-1.515,2.44,7.765,7.765,0,0,0-.285,5.22,6.762,6.762,0,0,0,2.621,3.582,7.84,7.84,0,0,0,2.29,1.078,10.552,10.552,0,0,0,2.937.4,10.965,10.965,0,0,0,3.712-.912A7.673,7.673,0,0,0,53,359.381a7.2,7.2,0,0,0,1.8-5.181,7.924,7.924,0,0,0-.633-2.758,7.743,7.743,0,0,0-1.593-2.389,7.52,7.52,0,0,0-2.487-1.682,8.558,8.558,0,0,0-3.314-.636,11.635,11.635,0,0,0-2.957.4c-1.772-9.9-3.319-20.512-4.732-32.44-1.369-11.559-2.446-22.961-3.319-32.589a5.7,5.7,0,0,0,.79-1.847,6.215,6.215,0,0,0,.137-2.017,5.59,5.59,0,0,0-1.714-3.6c-.979-8.7-2.082-16.392-3.372-23.524,5.138-1.062,9.747-1.906,14.091-2.579,5.053-.783,9.715-1.334,14.255-1.683a4.017,4.017,0,0,0,.811,1.816,5.68,5.68,0,0,0,1.546,1.341,8.56,8.56,0,0,0,1.98.868,10.1,10.1,0,0,0,2.116.4c.214.021.44.032.671.032a16.709,16.709,0,0,0,3.5-.513c.5-.109.968-.212,1.431-.293a7.991,7.991,0,0,0,2.824-1.762,7.749,7.749,0,0,0,1.813-2.614c.383,0,.779,0,1.177,0,4.233,0,8.534.131,12.783.39,4.226.257,8.507.647,12.723,1.158a3.6,3.6,0,0,0,.1,1.9,4.838,4.838,0,0,0,1,1.682,7.757,7.757,0,0,0,1.491,1.284,11.092,11.092,0,0,0,5.838,1.836,6.8,6.8,0,0,0,1.087-.083,9.186,9.186,0,0,0,2.3-.557,7.155,7.155,0,0,0,2-1.163,3.453,3.453,0,0,0,1.588-.8,3,3,0,0,0,.937-1.464c.789.174,1.592.34,2.369.5h0a58.716,58.716,0,0,1,6.986,1.741,5.8,5.8,0,0,1,1.854.917,3.95,3.95,0,0,1,1.13,1.339,4.084,4.084,0,0,1,.429,1.672,5.927,5.927,0,0,1-.247,1.915,7.734,7.734,0,0,0-2.7-.5,7.436,7.436,0,0,0-2.707.514,8.4,8.4,0,0,0-2.325,1.383,9.326,9.326,0,0,0-1.8,2.012,9.029,9.029,0,0,0-1.134,2.4,6.992,6.992,0,0,0,.021,4.344,6.07,6.07,0,0,0,1.136,1.955,7.369,7.369,0,0,0,2.006,1.606,4,4,0,0,0,1.008.481,3.917,3.917,0,0,0,1.181.2,2.1,2.1,0,0,0,.935-.194,1.328,1.328,0,0,0,.636-.658c.1-.015.2-.035.305-.059-.653,2.493-1.314,5-1.953,7.428l-.053.2a3.969,3.969,0,0,0-2.377,1.046,4.191,4.191,0,0,0-.771.969,4.423,4.423,0,0,0-.462,1.137,4.307,4.307,0,0,0-.131,1.2,3.874,3.874,0,0,0,.221,1.175,3.517,3.517,0,0,0,1.584,1.881c-1.212,4.7-2.236,8.853-3.13,12.683a6.209,6.209,0,0,0-1.162-.111,6.4,6.4,0,0,0-2.992.759,7.765,7.765,0,0,0-1.3.859,8.744,8.744,0,0,0-1.122,1.1,9.133,9.133,0,0,0-1.813,3.322,6.723,6.723,0,0,0-.138,3.533l.036.133a7.582,7.582,0,0,0,1.863,3.312,6.394,6.394,0,0,0,1.568,1.186,5.847,5.847,0,0,0,1.945.633c-.706,3.788-1.285,7.32-1.769,10.8a2.8,2.8,0,0,0-.772,2.742,86.745,86.745,0,0,1-.412,9.379v0c-.154,1.925-.314,3.916-.389,5.875a46.846,46.846,0,0,0,.1,5.869,8.813,8.813,0,0,0-3.189-2.291,9.166,9.166,0,0,0-1.8-.547,9.616,9.616,0,0,0-5.645.609,7.786,7.786,0,0,0-2.951,2.2,6.2,6.2,0,0,0-1.293,2.809,7.251,7.251,0,0,0,.288,3.52,6.747,6.747,0,0,0,.557,2.871,6.9,6.9,0,0,0,1.6,2.242,8.113,8.113,0,0,0,1.348,1.025,9.122,9.122,0,0,0,1.551.752,9.87,9.87,0,0,0,3.44.62,9.332,9.332,0,0,0,2.073-.23,8.378,8.378,0,0,0,1.957-.707,7.573,7.573,0,0,0,3.115-2.95c.126.43.265.865.4,1.285a24.736,24.736,0,0,1,.844,3.111.154.154,0,0,0,.16.114.175.175,0,0,0,.184-.138v-.019c.234-3.894.309-7.862.382-11.7.055-2.937.113-5.973.241-8.963.144-3.349.365-6.274.674-8.945a3.066,3.066,0,0,0,1.617-.565,4.787,4.787,0,0,0,1.264-1.341,8.113,8.113,0,0,0,1.227-3.864,6.84,6.84,0,0,0-.084-1.586,4.612,4.612,0,0,0-.462-1.382,3.064,3.064,0,0,0-.873-1.029,2.894,2.894,0,0,0-1.316-.527c.817-5.112,1.865-10.456,3.2-16.338,1.09-4.785,2.372-9.93,4.035-16.193a3.492,3.492,0,0,0,.807.1,3.075,3.075,0,0,0,1.424-.348,3.927,3.927,0,0,0,1.158-.936,5.922,5.922,0,0,0,.867-1.362,7.973,7.973,0,0,0,.551-1.626,8.524,8.524,0,0,0,.212-1.917,6.83,6.83,0,0,0-.241-1.821,3.52,3.52,0,0,0-1.98-2.467c1.144-4.208,2.364-8.712,3.53-13.132l.022.009a2.162,2.162,0,0,0,1.97.789,7.293,7.293,0,0,0,1.259-.121,2.713,2.713,0,0,0,1.632-1.442,3.514,3.514,0,0,0,.219-2.124,3.948,3.948,0,0,0-1.078-2.059,3.067,3.067,0,0,0-2.188-.9c-.106,0-.215.005-.323.015,1.2-3.34,1.163-6.311-.1-8.589a7.684,7.684,0,0,0-2.229-2.484,11.674,11.674,0,0,0-3.666-1.717l0-.179a2.283,2.283,0,0,0,.769.353,43.4,43.4,0,0,1,6.1,2.085,44.809,44.809,0,0,1,5.664,2.918c-.208,3.165-.568,6.377-1.1,9.822-.475,3.067-1.076,6.248-1.839,9.725-1.418,6.457-3.189,12.965-4.9,19.259l-.005.019c-.8,2.94-1.628,5.98-2.406,8.969a4.876,4.876,0,0,0-1.566.51,5.1,5.1,0,0,0-1.264.949,6.266,6.266,0,0,0-1.538,2.76,6.792,6.792,0,0,0-.235,1.7,6.12,6.12,0,0,0,.209,1.67,4.773,4.773,0,0,0,1.85,2.7c-.478,1.962-.9,3.972-1.3,6.145-.354,1.937-.679,3.96-.991,6.185-.58,4.131-1.029,8.349-1.464,12.427v.009l0,.036c-.245,2.3-.5,4.677-.772,7.012a3.635,3.635,0,0,0-2.069,1.232,4.175,4.175,0,0,0-.627,1.006,4.485,4.485,0,0,0-.333,1.138,4.345,4.345,0,0,0-.025,1.15,3.842,3.842,0,0,0,.288,1.1,3.337,3.337,0,0,0,1.578,1.674,43.1,43.1,0,0,1-2.483,9.463,38,38,0,0,1-2.026,4.34,35.915,35.915,0,0,1-2.565,4.026A36.766,36.766,0,0,1,100.8,381.085a20.091,20.091,0,0,0-2.163-5.413,2.662,2.662,0,0,0,.268-.029.522.522,0,0,1,.088-.111,5.846,5.846,0,0,0,1.516-2.338c.031-.193.065-.384.094-.545a2.156,2.156,0,0,0-.113-.22,4.669,4.669,0,0,0,.1-2.3,4.412,4.412,0,0,0-.939-1.873,7.251,7.251,0,0,0-3.011-2.03,10.648,10.648,0,0,0-1.9-.527,11.183,11.183,0,0,0-1.985-.179,9.518,9.518,0,0,0-2.3.268,1.962,1.962,0,0,0-1.439.976,24.09,24.09,0,0,0-5.45-1.925,26.4,26.4,0,0,0-5.789-.637,27.183,27.183,0,0,0-4.022.3,26.622,26.622,0,0,0-3.923.9,25.2,25.2,0,0,0-3.718,1.483,23.353,23.353,0,0,0-3.406,2.064,6.128,6.128,0,0,0-2.742-.638,6.789,6.789,0,0,0-1.89.274,7.468,7.468,0,0,0-3.2,1.9,6.477,6.477,0,0,0-1.081,1.438,5.386,5.386,0,0,0-.51,1.295,4.665,4.665,0,0,0-.132,1.372,4.881,4.881,0,0,0,1.1,2.78l-.271.332a15.819,15.819,0,0,1-2.7,2.784,5.115,5.115,0,0,1-1.368.727,4.783,4.783,0,0,1-1.566.248,11.082,11.082,0,0,1-3.827-.867,3.289,3.289,0,0,0,.707-1.319,2.985,2.985,0,0,0-.008-1.542l-.019-.068a8.783,8.783,0,0,0-1.471-3.024,10.452,10.452,0,0,0-2.465-2.355,11.781,11.781,0,0,0-6.62-2.073,10.589,10.589,0,0,0-2.533.3,9.921,9.921,0,0,0-2.426.948,3.679,3.679,0,0,0-.862-.1,3.727,3.727,0,0,0-1.266.221,3.578,3.578,0,0,0-1.079.613,2.871,2.871,0,0,0-1.081,2.09,16.793,16.793,0,0,1-3.81-2.844,18.189,18.189,0,0,1-2.777-3.591,25.688,25.688,0,0,1-3.033-8.441,7.3,7.3,0,0,0,1.631.566,7.935,7.935,0,0,0,1.7.183,8.489,8.489,0,0,0,2.246-.3,8.354,8.354,0,0,0,2.062-.873,7.369,7.369,0,0,0,1.7-1.379,7.5,7.5,0,0,0,1.807-5.333,6.474,6.474,0,0,0-.406-1.644,7.277,7.277,0,0,0-.8-1.5,8.434,8.434,0,0,0-2.916-2.589,8.066,8.066,0,0,0-3.817-1,7.047,7.047,0,0,0-2.615.5,7.581,7.581,0,0,0-2.453,1.6c-.364-3.23-.678-6.522-.982-9.705v0c-.387-4.054-.787-8.246-1.294-12.357-.568-4.61-1.211-8.627-1.968-12.278a5.229,5.229,0,0,0,2.055,1.795,6.049,6.049,0,0,0,2.681.625,5.741,5.741,0,0,0,1.922-.324,5.179,5.179,0,0,0,1.709-1,8.35,8.35,0,0,0,1.955-2.212,7.859,7.859,0,0,0,.974-2.536,8.751,8.751,0,0,0,.1-2.669,10.012,10.012,0,0,0-.663-2.611A10.552,10.552,0,0,0,19.09,302a9.877,9.877,0,0,0-1.859-1.916,7.792,7.792,0,0,0-7.514-1.32,10.4,10.4,0,0,0-2.693,1.415,88.712,88.712,0,0,1-1.241-9.522c-.234-3.032-.338-6.254-.309-9.577A2.629,2.629,0,0,0,6.357,281.243Zm9.985-34.327a6.372,6.372,0,0,0-3.357.9,6.221,6.221,0,0,0-2.849,3.612A8.893,8.893,0,0,0,10,256.2a7.835,7.835,0,0,0,1.966,3.662,6,6,0,0,0,3.786,1.8,7.393,7.393,0,0,0,.994.069,6.225,6.225,0,0,0,2.277-.418,6.067,6.067,0,0,0,1.834-1.133,7.063,7.063,0,0,0,1.362-1.668,8.331,8.331,0,0,0,.858-2.024,8.563,8.563,0,0,0-.076-4.94,6.363,6.363,0,0,0-3.158-3.756,6.992,6.992,0,0,0-1.678-.652A7.519,7.519,0,0,0,16.342,246.916Zm29.3,4.739a8.667,8.667,0,0,0-7.2,3.945,7.259,7.259,0,0,0-.759,1.586,6.4,6.4,0,0,0-.326,1.705,6.013,6.013,0,0,0,.172,1.761,6.468,6.468,0,0,0,.733,1.753,6.557,6.557,0,0,0,2.361,4.4,7.908,7.908,0,0,0,5.014,1.852h.042a8.763,8.763,0,0,0,3.137-.548,7.279,7.279,0,0,0,2.374-1.474A7.675,7.675,0,0,0,52.8,264.49a8.86,8.86,0,0,0,.836-2.569,9.642,9.642,0,0,0,.014-3.072,9.182,9.182,0,0,0-.969-2.927,8.036,8.036,0,0,0-4.911-3.987A8.231,8.231,0,0,0,45.641,251.655Zm36.6,3.521a8.21,8.21,0,0,0-3.9.986,6.927,6.927,0,0,0-2.413,2.195,7,7,0,0,0-.726,1.386,7.192,7.192,0,0,0-.4,1.5,7.282,7.282,0,0,0,.235,3.253,6.981,6.981,0,0,0,1.732,2.878,7.445,7.445,0,0,0,2.5,4.384,8.029,8.029,0,0,0,2.256,1.422,6.828,6.828,0,0,0,2.62.536,6.309,6.309,0,0,0,1.48-.176,5.625,5.625,0,0,0,1.308-.479A5.43,5.43,0,0,0,88,272.325a6.963,6.963,0,0,0,1.555-2.022,13.188,13.188,0,0,0,.964-2.429c.248-.829.437-1.655.609-2.431a6.994,6.994,0,0,0,.195-1.874,7.4,7.4,0,0,0-.29-1.821,8.272,8.272,0,0,0-.715-1.71,9.2,9.2,0,0,0-1.078-1.541,9.841,9.841,0,0,0-3.123-2.4,9.25,9.25,0,0,0-1.878-.676A8.559,8.559,0,0,0,82.244,255.176Zm20.439,19.315a7.956,7.956,0,0,0-2.794.5,8.182,8.182,0,0,0-2.339,1.354,8.313,8.313,0,0,0-2.783,4.332,6.993,6.993,0,0,0-.2,2.263,6.3,6.3,0,0,0,.588,2.219,6.721,6.721,0,0,0,1.475,2.005,9.12,9.12,0,0,0,2.46,1.622,5.46,5.46,0,0,0,2.264,1.841,7.284,7.284,0,0,0,3.018.65,6.741,6.741,0,0,0,1.818-.243,7.044,7.044,0,0,0,2.013-.948,6.472,6.472,0,0,0,1.481-1.416,7.111,7.111,0,0,0,.973-1.764,8.458,8.458,0,0,0,.488-1.993,10.355,10.355,0,0,0-.843-5.415,9.345,9.345,0,0,0-1.471-2.322,7.709,7.709,0,0,0-2.1-1.71A9.267,9.267,0,0,0,102.683,274.491Zm-40.233.989a8.506,8.506,0,0,0-3.056.583,11.38,11.38,0,0,0-3.162,1.9,5.656,5.656,0,0,0-2.9,4.755,8.359,8.359,0,0,0,.172,1.908,8.984,8.984,0,0,0,.583,1.813,9.591,9.591,0,0,0,.944,1.66,9.868,9.868,0,0,0,1.253,1.447,9.436,9.436,0,0,0,2.807,1.856,8.453,8.453,0,0,0,3.328.69A8.631,8.631,0,0,0,66.56,291a10.274,10.274,0,0,0,2.476-2.1,7.861,7.861,0,0,0,1.4-2.4,7.417,7.417,0,0,0,.435-2.529,8.04,8.04,0,0,0-.4-2.483,8.817,8.817,0,0,0-1.178-2.34,8.973,8.973,0,0,0-1.817-1.911,8.42,8.42,0,0,0-2.323-1.288A7.922,7.922,0,0,0,62.45,275.48ZM46.427,295.567a8.467,8.467,0,0,0-3.473.727,6.973,6.973,0,0,0-1.491.91,6.138,6.138,0,0,0-1.2,1.275,8.056,8.056,0,0,0-1.095,2.24,7.922,7.922,0,0,0-.346,2.321,8.4,8.4,0,0,0,.315,2.268,8.793,8.793,0,0,0,.887,2.082A8.3,8.3,0,0,0,42.7,310.2a7.126,7.126,0,0,0,1.747.807,6.666,6.666,0,0,0,1.94.289,7.168,7.168,0,0,0,2.619-.51,9.8,9.8,0,0,0,2.709-1.651,6.466,6.466,0,0,0,1.535-2.286,8.628,8.628,0,0,0,.6-2.737,10.722,10.722,0,0,0-1.1-5.389,6.041,6.041,0,0,0-1.189-1.377,6.872,6.872,0,0,0-1.524-.985A8.435,8.435,0,0,0,46.427,295.567Zm34.6.575c-.174,0-.351.005-.527.015a8.5,8.5,0,0,0-2.5.539,7.723,7.723,0,0,0-2.038,1.166,8.522,8.522,0,0,0-2.619,3.658,9.834,9.834,0,0,0-.447,5.383,8.751,8.751,0,0,0,.932,2.547,7.858,7.858,0,0,0,1.735,2.133A9.914,9.914,0,0,0,82.062,314a9.291,9.291,0,0,0,1.97-.208,8.273,8.273,0,0,0,1.851-.634,7.463,7.463,0,0,0,1.639-1.077,7.294,7.294,0,0,0,1.334-1.536,8.544,8.544,0,0,0,1.2-5,10.6,10.6,0,0,0-.479-2.634,10.784,10.784,0,0,0-1.125-2.454,9.99,9.99,0,0,0-1.351-1.725,8.963,8.963,0,0,0-1.71-1.366,8.28,8.28,0,0,0-2.038-.9A8.464,8.464,0,0,0,81.022,296.142Zm-19,23.773a8.52,8.52,0,0,0-3.123.607,11.347,11.347,0,0,0-3.217,1.985,8.068,8.068,0,0,0-1.525,1.938,6.708,6.708,0,0,0-.742,2.066,6.909,6.909,0,0,0,.545,4.085,8.145,8.145,0,0,0,1.272,1.975,8.743,8.743,0,0,0,1.827,1.591,8.915,8.915,0,0,0,4.887,1.447,9.666,9.666,0,0,0,2.511-.339,11.629,11.629,0,0,0,3.138-1.581,7.543,7.543,0,0,0,1.951-2.052,6.486,6.486,0,0,0,.855-4.758,8.149,8.149,0,0,0-1.01-2.628,9.057,9.057,0,0,0-1.859-2.222,8.759,8.759,0,0,0-2.519-1.538A8.1,8.1,0,0,0,62.025,319.915Zm33.125.435a7.232,7.232,0,0,0-3.385.809,7.764,7.764,0,0,0-2.862,2.647,9.437,9.437,0,0,0-.989,2.277,7.68,7.68,0,0,0-.288,2.18,7.2,7.2,0,0,0,.324,2.026A7.545,7.545,0,0,0,88.8,332.1a8.615,8.615,0,0,0,3.158,2.91,8.949,8.949,0,0,0,4.26,1.1,8.373,8.373,0,0,0,3.752-.883,9.739,9.739,0,0,0,3.386-2.87,6.459,6.459,0,0,0,.809-5.619,7.737,7.737,0,0,0-.782-1.7,9.294,9.294,0,0,0-1.53-1.88,10.442,10.442,0,0,0-1.989-1.482,10.2,10.2,0,0,0-2.287-.972A8.845,8.845,0,0,0,95.151,320.35ZM78.7,345.68a8.33,8.33,0,0,0-3.864.951,10.923,10.923,0,0,0-3.615,3.14,9.418,9.418,0,0,0-1.047,2.342,8.16,8.16,0,0,0-.32,2.307,7.948,7.948,0,0,0,1.22,4.158,8.535,8.535,0,0,0,3.079,2.913,8.787,8.787,0,0,0,2.052.824,9.059,9.059,0,0,0,2.294.293,9.8,9.8,0,0,0,2.375-.3,11.362,11.362,0,0,0,2.465-.943,11.853,11.853,0,0,0,2.588-2.194,8.107,8.107,0,0,0,1.456-2.39,6.928,6.928,0,0,0,.462-2.453,7.353,7.353,0,0,0-.393-2.382,9.262,9.262,0,0,0-3.336-4.44,9.665,9.665,0,0,0-2.548-1.338A8.77,8.77,0,0,0,78.7,345.68Z" transform="translate(1293.544 659.793) rotate(180)"/><path class="a" d="M25.744.091C16.823.091,5.649,10.168,2.379,14.456-.37,18.062.019,36.635.019,47.652c0,2.3,1.052,6.665,1.434,8.869,1.4,8.077,7.5,14.851,19.562,14.851,9.825,0,17.385-3.081,24.7-10.963,1.668-1.8,9.814,4.639,11.48,2.321,4.352,0,7.99-40.26-.554-52.336S34.665.091,25.744.091Z" transform="translate(1190.933 193.169)"/><path class="b" d="M21.194,0A1.824,1.824,0,0,0,20.2.295a1.3,1.3,0,0,0-.583.812c-.077.36-.163.721-.255,1.072-.171.658-.368,1.312-.586,1.945l-.084.24c-.088.25-.175.5-.259.75v0c-.094.275-.191.56-.29.839l-.019.06L18.1,6.1l-.319-.689-.969-2.08a.852.852,0,0,0-.8-.517,1.215,1.215,0,0,0-.762.286,1.021,1.021,0,0,0-.384.724v.032c-.005.2-.012.366-.022.513A16.531,16.531,0,0,1,14.2,8.081l-.127-.156a19.287,19.287,0,0,0-3.144-3.177A10.415,10.415,0,0,0,9.053,3.591a8.4,8.4,0,0,0-2.136-.684,1.007,1.007,0,0,0-.174-.015,1.161,1.161,0,0,0-.993.576.8.8,0,0,0,.063.859c.219.318.428.644.624.968-.171.08-.334.162-.482.246a9.584,9.584,0,0,0-2.911,2.6A10.135,10.135,0,0,0,1.973,9.882a12.2,12.2,0,0,0-.724,1.9,17.79,17.79,0,0,0-.642,4.031A26.57,26.57,0,0,0,1.5,24.462a21.717,21.717,0,0,0,1.342,3.454c-.035.091-.069.185-.1.274h0l-.008.023A45.309,45.309,0,0,0,1.28,33.094a47.066,47.066,0,0,0-1.274,10.2,48.728,48.728,0,0,0,.733,9.2,46.3,46.3,0,0,0,2.492,8.889,47.442,47.442,0,0,0,4.378,8.539,37.254,37.254,0,0,0,6.2,7.329,25.063,25.063,0,0,0,4.009,2.942,26.428,26.428,0,0,0,4.469,2.1,28.1,28.1,0,0,0,4.789,1.26,29.526,29.526,0,0,0,4.969.42c.237,0,.477,0,.714-.009a34.2,34.2,0,0,0,5.352-.558,36.567,36.567,0,0,0,5.2-1.363,31.872,31.872,0,0,0,4.907-2.2,12.264,12.264,0,0,0,1.589-1.055l.125-.1h0a10.759,10.759,0,0,0,3.639-2.346c.5.04,1,.06,1.495.06a16.6,16.6,0,0,0,5.007-.749,16.882,16.882,0,0,0,4.174-1.968,14.337,14.337,0,0,0,3.4-3.085,12.469,12.469,0,0,0,2.286-4.613,15.7,15.7,0,0,0,.417-5.146l-.049-.6a26.158,26.158,0,0,0-.785-4.985,10.405,10.405,0,0,0-.956-2.326A6.479,6.479,0,0,0,67,51.069a2.012,2.012,0,0,0-.638-.345A38.2,38.2,0,0,0,68.6,46.292,33.326,33.326,0,0,0,70.207,41.6a44.2,44.2,0,0,0,.919-4.554c.22-1.489.372-3.032.451-4.585.076-1.494.086-3.041.031-4.6-.053-1.492-.167-3.038-.34-4.6-.165-1.484-.387-3.023-.662-4.576-.26-1.469-.574-3-.935-4.538-.659-2.817-1.474-5.726-2.494-8.893a1.6,1.6,0,0,0-.609-.8,1.683,1.683,0,0,0-.959-.324,1.179,1.179,0,0,0-.952.46,9.474,9.474,0,0,1-1.107,1.173,8.846,8.846,0,0,1-1.3.964A7.406,7.406,0,0,1,59.212,7.8c-.434.048-.872.052-1.3.057a12.077,12.077,0,0,0-1.343.064,4.2,4.2,0,0,0-1.311.363,3.582,3.582,0,0,0-1.324,1.1,17.409,17.409,0,0,0-2.98-.824,17.18,17.18,0,0,0-3.08-.281c-.227,0-.456,0-.681.014a18.631,18.631,0,0,0-2.84.334,16.678,16.678,0,0,0-2.778.8,13.8,13.8,0,0,0-2.559,1.3,11.344,11.344,0,0,0-2.18,1.837,1.728,1.728,0,0,0-.4.709,1.509,1.509,0,0,0-.021.713,5.589,5.589,0,0,0,1,.253,25.632,25.632,0,0,1,5.159-2.323,20.944,20.944,0,0,1,2.753-.672,19.279,19.279,0,0,1,2.86-.276c.139,0,.278,0,.411,0a12.345,12.345,0,0,1,3.067.34A8.2,8.2,0,0,1,53.1,11.8a7.3,7.3,0,0,1,1.338.808,8.892,8.892,0,0,1,1.09.99,16.046,16.046,0,0,1,2.638,2.112,18.428,18.428,0,0,1,2.19,2.616,20.707,20.707,0,0,1,1.716,2.988,21.99,21.99,0,0,1,1.215,3.229,24.926,24.926,0,0,1,.915,6.264,49.825,49.825,0,0,1-.282,6.343l-.215,2.225c-.3,3.141-.6,6.487-.687,9.82h.025a.64.64,0,0,1,.6.686.542.542,0,0,1-.556.56l-.048,0c-.336-.022-.687-.032-1.074-.032-.672,0-1.352.033-2.011.064s-1.338.064-2.009.064c-.42,0-.8-.013-1.162-.038a10.446,10.446,0,0,1-.378,2.891.594.594,0,0,1-.26.328.772.772,0,0,1-.406.117.516.516,0,0,1-.546-.444,18.672,18.672,0,0,1-.2-2.585c-1.166.015-2.352.062-3.5.107h0c-1.406.055-2.859.113-4.289.113-.557,0-1.073-.008-1.575-.026a4.538,4.538,0,0,0-.831,1.809c-.066.224-.129.436-.2.628-.042.118-.081.226-.119.33a17.579,17.579,0,0,0-1.014-3.148l-.766,0c-1.945-.009-4.245-.039-6.549-.194a46.322,46.322,0,0,1-6.472-.849,1.493,1.493,0,0,0-.518.97c-.169,1.268-.361,2.387-.586,3.423a27.529,27.529,0,0,1-.939,3.341l-.111.311-.029.082a16.875,16.875,0,0,0-2-2.567c-.406-.433-.856-.876-1.375-1.353-.226-.248-.459-.5-.685-.741h0c-.234-.251-.475-.51-.709-.768.019-.1.034-.19.047-.281a13.829,13.829,0,0,0,.052-3.176,15.1,15.1,0,0,0-1.606-5.453l-.028-.17a9,9,0,0,0-.266-1.186,3.483,3.483,0,0,0-.5-1.038,5.774,5.774,0,0,0,.725-1,5.609,5.609,0,0,0,.5-1.151.706.706,0,0,0-.122-.641.87.87,0,0,0-.678-.35.67.67,0,0,0-.513.235,6.1,6.1,0,0,1-1.384,1.168.111.111,0,0,0-.089-.047.134.134,0,0,0-.065.018,4.656,4.656,0,0,1-2.219.481,6.844,6.844,0,0,1-3-.671,4.07,4.07,0,0,1-1.119-.846,4.117,4.117,0,0,1-.735-1.118,5.283,5.283,0,0,1-.391-2.7,8.573,8.573,0,0,1,.756-2.752,5.8,5.8,0,0,1,.754-1.2,4.016,4.016,0,0,1,1.022-.893,2.3,2.3,0,0,1,1.225-.377,3.008,3.008,0,0,1,.793.12,2.317,2.317,0,0,1,.668.363l.126.1a3.762,3.762,0,0,0,.736.472,1.956,1.956,0,0,0,.8.19,1.284,1.284,0,0,0,.379.059,1.092,1.092,0,0,0,.627-.192,1.157,1.157,0,0,0,.419-.558l.014-.04c.019-.056.041-.114.063-.176a2.294,2.294,0,0,0,.2-1.019,2.27,2.27,0,0,0-.64-1.365c-.063-.068-.129-.132-.195-.191a21.287,21.287,0,0,0,5.376-11.922,26.759,26.759,0,0,0,.008-6.69,27.449,27.449,0,0,0-1.6-6.463c-.129-.342-.272-.692-.435-1.07A1.165,1.165,0,0,0,21.92.178,1.484,1.484,0,0,0,21.194,0ZM10.4,23.9h0a.708.708,0,0,1-.6-.336.533.533,0,0,1,.015-.558l.015-.024a11.9,11.9,0,0,0,1.2-2.855c.058-.181.123-.385.188-.581a.608.608,0,0,1,.6-.431.681.681,0,0,1,.546.258.533.533,0,0,1,.064.5l-.084.256-.111.344a13.109,13.109,0,0,1-1.317,3.132.6.6,0,0,1-.515.29Zm4.651,45.881a.629.629,0,0,1-.417-.164c-2.136-1.869-3.2-4.561-4.228-7.164-.3-.758-.609-1.542-.938-2.281a.636.636,0,0,1,.051-.627.713.713,0,0,1,.572-.327.5.5,0,0,1,.463.325c.328.737.635,1.526.933,2.289.967,2.479,1.968,5.043,3.945,6.823l.091.081a.523.523,0,0,1,.167.6A.707.707,0,0,1,15.053,69.782Zm33.371,0h0a.671.671,0,0,1-.433-.165.721.721,0,0,1-.235-.376.494.494,0,0,1,.285-.583l.026-.012a5.8,5.8,0,0,0,1.569-1.035,7.594,7.594,0,0,0,1.181-1.4A20.759,20.759,0,0,0,52.5,62.882l.048-.111a.489.489,0,0,1,.459-.327.715.715,0,0,1,.57.326.641.641,0,0,1,.056.628l-.18.413a18.861,18.861,0,0,1-1.828,3.421A7.194,7.194,0,0,1,48.7,69.717a.678.678,0,0,1-.277.061Zm3.9,1.473a.506.506,0,0,1-.366-.154.67.67,0,0,1-.178-.358.681.681,0,0,1,.061-.425.622.622,0,0,1,.36-.3A7.616,7.616,0,0,0,54.873,68.4,13.177,13.177,0,0,0,56.892,66a.616.616,0,0,1,.52-.281.714.714,0,0,1,.612.35.521.521,0,0,1-.048.56,14.67,14.67,0,0,1-2.344,2.75,9.037,9.037,0,0,1-3.1,1.838.653.653,0,0,1-.211.037ZM18.366,32.52a1.779,1.779,0,0,0-.357.037c-.835.172-1.19.778-1.566,1.42-.11.188-.224.383-.351.566L16,34.678l-.073.106-.005.008a3,3,0,0,1-1.242,1.221.19.19,0,0,0-.123.167.14.14,0,0,0,.082.14l.284.136a4.207,4.207,0,0,0,1.787.511,2.844,2.844,0,0,0,.95-.17,4.055,4.055,0,0,0,1.3-.762,2.949,2.949,0,0,0,.862-1.2,1.845,1.845,0,0,0,.1-.8,1.888,1.888,0,0,0-.292-.828,1.444,1.444,0,0,0-.548-.517A1.506,1.506,0,0,0,18.366,32.52Z" transform="translate(1257.302 273.341) rotate(180)"/><g transform="translate(1194.755 224.223)"><path class="b" d="M16.974,0A6.036,6.036,0,0,0,14.7.449a6.428,6.428,0,0,0-1.481.843,6.279,6.279,0,0,0-1.206,1.2,1.225,1.225,0,0,0-.251.955,1.375,1.375,0,0,0,.541.863,1.342,1.342,0,0,0,.794.274,1.163,1.163,0,0,0,.177-.014,1.226,1.226,0,0,0,.82-.537l.048-.066A4.225,4.225,0,0,1,15.7,2.682a3.551,3.551,0,0,1,1.539-.356,3.443,3.443,0,0,1,.381.021,4.034,4.034,0,0,1,1.694.59,7.916,7.916,0,0,1,1.435,1.186c.1.1.212.217.353.365a.558.558,0,0,0,.293.223.605.605,0,0,0,.19.03.651.651,0,0,0,.213-.036.64.64,0,0,0,.318-.238.582.582,0,0,0,.1-.386A3.516,3.516,0,0,0,21.79,2.71a4.586,4.586,0,0,0-.907-1.153A5.833,5.833,0,0,0,19.509.608,5.759,5.759,0,0,0,17.984.091,5.67,5.67,0,0,0,16.974,0Zm1.6,8.959h0a5.532,5.532,0,0,0-1.956.39,9.9,9.9,0,0,0-2.3,1.292.874.874,0,0,0-.321.505,1.037,1.037,0,0,0,.045.568,1.291,1.291,0,0,0,.387.554.948.948,0,0,0,.6.233.862.862,0,0,0,.467-.142l.156-.119h0a12.455,12.455,0,0,1,1.44-.991A3.572,3.572,0,0,1,18.82,10.7a1.88,1.88,0,0,1,.729.142,2.038,2.038,0,0,1,.679.476,2.047,2.047,0,0,1,.4,1.66,3.128,3.128,0,0,1-.84,1.473,6.117,6.117,0,0,1-1.272,1.017.388.388,0,0,0-.107.449.586.586,0,0,0,.2.28.606.606,0,0,0,.376.123.808.808,0,0,0,.135-.012,4.294,4.294,0,0,0,1.5-.537,3.391,3.391,0,0,0,1.009-.921,3.633,3.633,0,0,0,.644-2.445,4,4,0,0,0-.33-1.283,3.742,3.742,0,0,0-.744-1.1A3.573,3.573,0,0,0,18.571,8.959ZM5.845,17.707A1.305,1.305,0,0,0,4.576,18.86a9.259,9.259,0,0,0,.05,2.435c.03.237.06.481.082.745a1.454,1.454,0,0,0,.558,1.042,1.729,1.729,0,0,0,1.057.368,1.312,1.312,0,0,0,.8-.249,1.171,1.171,0,0,0,.442-.778A6.477,6.477,0,0,0,6.875,18.4a1.3,1.3,0,0,0-.46-.527A1.069,1.069,0,0,0,5.845,17.707Zm18.681.552a1.127,1.127,0,0,0-.88.373,3.4,3.4,0,0,0-.537.9,3.9,3.9,0,0,0-.274,1.087A2.291,2.291,0,0,0,23.47,22.6a1.3,1.3,0,0,0,.1.153,1.44,1.44,0,0,0,1.106.63,1.209,1.209,0,0,0,.336-.049,1.613,1.613,0,0,0,1.081-.934,3.271,3.271,0,0,0,.134-1.806,6,6,0,0,0-.553-1.7,1.111,1.111,0,0,0-.478-.467A1.46,1.46,0,0,0,24.525,18.259ZM.207,24.06a.2.2,0,0,0-.17.1.224.224,0,0,0-.014.221,7.686,7.686,0,0,0,1.738,2.178,10.749,10.749,0,0,0,2.326,1.573,10.068,10.068,0,0,0,2.762.954l.295.051a7.254,7.254,0,0,0,1.205.129,1.872,1.872,0,0,0,1.487-.549,1.243,1.243,0,0,0,.3-.889.812.812,0,0,0-.3-.581A2.307,2.307,0,0,0,8.265,26.8c-.124,0-.252,0-.376.006h0c-.119,0-.254.006-.388.006s-.233,0-.336-.009A10.715,10.715,0,0,1,4.824,26.4,15.942,15.942,0,0,1,.315,24.1.2.2,0,0,0,.207,24.06ZM28.65,25.239h0l-.124.031a7.077,7.077,0,0,0-1.364.527l-.443.216a12.366,12.366,0,0,1-1.582.667,18.822,18.822,0,0,1-3.6.788,1.481,1.481,0,0,0-.723.272,1.173,1.173,0,0,0-.28,1.524,1.172,1.172,0,0,0,.571.487,1.294,1.294,0,0,0,.486.092,1.446,1.446,0,0,0,.281-.028l.226-.046a16.236,16.236,0,0,0,3.891-1.252A7.875,7.875,0,0,0,27.7,27.4a4.953,4.953,0,0,0,1.21-1.548c.042-.323,0-.4-.041-.458l-.013-.016-.011-.015a.313.313,0,0,0-.193-.127Z" transform="translate(28.925 29.842) rotate(180)"/></g></g></svg>